<svg width="317" height="46" viewBox="0 0 317 46" fill="none" xmlns="http://www.w3.org/2000/svg">
<path d="M0 22.976C0 18.624 1.00267 14.72 3.008 11.264C5.056 7.808 7.808 5.12 11.264 3.2C14.7627 1.23733 18.5813 0.255997 22.72 0.255997C27.456 0.255997 31.6587 1.42933 35.328 3.776C39.04 6.08 41.728 9.36533 43.392 13.632H34.624C33.472 11.2853 31.872 9.536 29.824 8.384C27.776 7.232 25.408 6.656 22.72 6.656C19.776 6.656 17.152 7.31733 14.848 8.64C12.544 9.96266 10.7307 11.8613 9.408 14.336C8.128 16.8107 7.488 19.6907 7.488 22.976C7.488 26.2613 8.128 29.1413 9.408 31.616C10.7307 34.0907 12.544 36.0107 14.848 37.376C17.152 38.6987 19.776 39.36 22.72 39.36C25.408 39.36 27.776 38.784 29.824 37.632C31.872 36.48 33.472 34.7307 34.624 32.384H43.392C41.728 36.6507 39.04 39.936 35.328 42.24C31.6587 44.544 27.456 45.696 22.72 45.696C18.5387 45.696 14.72 44.736 11.264 42.816C7.808 40.8533 5.056 38.144 3.008 34.688C1.00267 31.232 0 27.328 0 22.976Z" fill="white"/>
<path d="M78.748 36.224H60.124L56.924 45.312H49.308L65.244 0.767998H73.692L89.628 45.312H81.948L78.748 36.224ZM76.7 30.272L69.468 9.6L62.172 30.272H76.7Z" fill="white"/>
<path d="M111.213 45.76C108.226 45.76 105.538 45.248 103.149 44.224C100.76 43.1573 98.8823 41.664 97.517 39.744C96.1517 37.824 95.469 35.584 95.469 33.024H103.277C103.448 34.944 104.194 36.5227 105.517 37.76C106.882 38.9973 108.781 39.616 111.213 39.616C113.73 39.616 115.693 39.0187 117.101 37.824C118.509 36.5867 119.213 35.008 119.213 33.088C119.213 31.5947 118.765 30.3787 117.869 29.44C117.016 28.5013 115.928 27.776 114.605 27.264C113.325 26.752 111.533 26.1973 109.229 25.6C106.328 24.832 103.96 24.064 102.125 23.296C100.333 22.4853 98.797 21.248 97.517 19.584C96.237 17.92 95.597 15.7013 95.597 12.928C95.597 10.368 96.237 8.128 97.517 6.208C98.797 4.288 100.589 2.816 102.893 1.792C105.197 0.767998 107.864 0.255997 110.893 0.255997C115.202 0.255997 118.722 1.344 121.453 3.52C124.226 5.65333 125.762 8.59733 126.061 12.352H117.997C117.869 10.7307 117.101 9.344 115.693 8.192C114.285 7.04 112.429 6.464 110.125 6.464C108.034 6.464 106.328 6.99733 105.005 8.064C103.682 9.13066 103.021 10.6667 103.021 12.672C103.021 14.0373 103.426 15.168 104.237 16.064C105.09 16.9173 106.157 17.6 107.437 18.112C108.717 18.624 110.466 19.1787 112.685 19.776C115.629 20.5867 118.018 21.3973 119.853 22.208C121.73 23.0187 123.309 24.2773 124.589 25.984C125.912 27.648 126.573 29.888 126.573 32.704C126.573 34.9653 125.954 37.0987 124.717 39.104C123.522 41.1093 121.752 42.7307 119.405 43.968C117.101 45.1627 114.37 45.76 111.213 45.76Z" fill="white"/>
<path d="M170.702 0.831997V45.312H163.406V25.856H142.478V45.312H135.182V0.831997H142.478V19.904H163.406V0.831997H170.702Z" fill="white"/>
<path d="M209.043 22.08C211.774 22.72 213.886 24.0427 215.379 26.048C216.915 28.0107 217.683 30.2933 217.683 32.896C217.683 36.864 216.36 39.936 213.715 42.112C211.112 44.2453 207.358 45.312 202.451 45.312H178.707V0H201.811C206.419 0 210.046 1.00267 212.691 3.008C215.336 5.01333 216.659 7.936 216.659 11.776C216.659 14.4213 215.955 16.6613 214.547 18.496C213.182 20.288 211.347 21.4827 209.043 22.08ZM178.707 17.664H198.419C199.699 17.664 200.638 17.408 201.235 16.896C201.875 16.384 202.195 15.5947 202.195 14.528C202.195 13.4187 201.875 12.608 201.235 12.096C200.638 11.5413 199.699 11.264 198.419 11.264H178.707V17.664ZM199.379 33.92C200.659 33.92 201.598 33.6853 202.195 33.216C202.835 32.704 203.155 31.8933 203.155 30.784C203.155 28.608 201.896 27.52 199.379 27.52H178.707V33.92H199.379Z" fill="white"/>
<path d="M265.913 45.312H251.705L236.665 22.528V45.312H222.457V0H236.665L251.705 23.168V0H265.913V45.312Z" fill="white"/>
<path d="M299.724 45.312L286.54 25.664V45.312H272.332V0H286.54V19.072L299.532 0H315.596L299.98 21.696L316.62 45.312H299.724Z" fill="white"/>
</svg>
